<?xml version="1.0" encoding="UTF-8"?>
<svg width="24px" height="24px" viewBox="0 0 24 24" version="1.1" xmlns="http://www.w3.org/2000/svg">
    <rect width="24" height="24" fill="#F7DF1E"/>
    <path d="M6.667,18.524l1.524-0.921c0.294,0.521,0.561,0.962,1.203,0.962c0.615,0,1.002-0.241,1.002-1.176V10.29h1.871v7.126c0,1.939-1.136,2.822-2.792,2.822c-1.497,0-2.366-0.775-2.808-1.714 M13.041,18.298l1.524-0.882c0.401,0.655,0.923,1.137,1.845,1.137c0.775,0,1.271-0.388,1.271-0.923c0-0.641-0.507-0.868-1.363-1.243l-0.467-0.201c-1.35-0.575-2.246-1.296-2.246-2.822c0-1.404,1.069-2.473,2.739-2.473c1.19,0,2.045,0.414,2.66,1.497l-1.457,0.935c-0.321-0.575-0.668-0.802-1.203-0.802c-0.548,0-0.895,0.348-0.895,0.802c0,0.561,0.348,0.788,1.15,1.137l0.467,0.201c1.59,0.681,2.486,1.376,2.486,2.942c0,1.685-1.323,2.606-3.101,2.606c-1.737,0-2.859-0.828-3.408-1.912" fill="#000000"/>
</svg> 