<?xml version="1.0" encoding="UTF-8"?>
<svg width="24px" height="24px" viewBox="0 0 24 24" version="1.1" xmlns="http://www.w3.org/2000/svg">
    <path d="M12,9.861c-1.182,0-2.139,0.957-2.139,2.139s0.957,2.139,2.139,2.139s2.139-0.957,2.139-2.139S13.182,9.861,12,9.861z" fill="#61DAFB"/>
    <path d="M12,4.5c-4.418,0-8.5,0.897-8.5,2.5c0,3.714,3.879,7.335,8.5,7.335s8.5-3.621,8.5-7.335C20.5,5.397,16.418,4.5,12,4.5z M12,13.139c-1.182,0-2.139-0.957-2.139-2.139s0.957-2.139,2.139-2.139s2.139,0.957,2.139,2.139S13.182,13.139,12,13.139z" fill="#61DAFB" fill-opacity="0.3"/>
    <path d="M12,16.335c-4.621,0-8.5-3.621-8.5-7.335c0-1.603,4.082-2.5,8.5-2.5s8.5,0.897,8.5,2.5C20.5,12.714,16.621,16.335,12,16.335z M12,7.5c-3.59,0-7.5,0.747-7.5,1.5c0,3.159,3.375,6.335,7.5,6.335s7.5-3.176,7.5-6.335C19.5,8.247,15.59,7.5,12,7.5z" fill="#61DAFB"/>
    <path d="M18.969,17.969c-2.189,3.791-4.913,6.031-7.469,6.031s-5.28-2.24-7.469-6.031c-0.292-0.506-0.119-1.154,0.387-1.446s1.154-0.119,1.446,0.387c1.813,3.139,3.906,5.09,5.636,5.09s3.823-1.951,5.636-5.09c0.292-0.506,0.94-0.679,1.446-0.387S19.261,17.463,18.969,17.969z" fill="#61DAFB"/>
</svg> 