<?xml version="1.0" encoding="UTF-8"?>
<svg width="24px" height="24px" viewBox="0 0 24 24" version="1.1" xmlns="http://www.w3.org/2000/svg">
    <path d="M4.136,3.012h15.729l-1.431,16.15l-6.451,1.826l-6.414-1.826l-1.433-16.15z" fill="#E44D26"/>
    <path d="M12,19.549l5.211-1.476l1.225-13.734h-6.436v15.21z" fill="#F16529"/>
    <path d="M12,8.277v0h-5.436l0.374,4.192h5.062v0h-0.001v-4.192z M12,16.667v0l-0.001,0l-2.733-0.738l-0.175-1.956h-2.464l0.343,3.851l5.03,1.396v0h0.001v-2.553z" fill="#EBEBEB"/>
    <path d="M11.999,8.277v4.192h5.063l-0.476,5.332l-4.587,1.238v2.553l5.029-1.396l0.705-7.901l0.073-0.813l0.475-5.205h-6.282z" fill="#FFFFFF"/>
</svg> 