<?xml version="1.0" encoding="UTF-8"?>
<svg width="24px" height="24px" viewBox="0 0 24 24" version="1.1" xmlns="http://www.w3.org/2000/svg">
    <path d="M12,2C6.477,2,2,6.477,2,12s4.477,10,10,10s10-4.477,10-10S17.523,2,12,2z M6.858,17.752C6.412,17.523,6,16.914,6,16.343v-8.686c0-0.571,0.412-1.18,0.858-1.409L15.142,2.91C15.588,2.681,16,2.914,16,3.486v8.686c0,0.571-0.412,1.18-0.858,1.409L6.858,17.752z" fill="#000000"/>
    <path d="M16.524,16.457L11,13.229v-5.771l5.524,3.229V16.457z" fill="#FFFFFF"/>
</svg> 