<?xml version="1.0" encoding="UTF-8"?>
<svg width="24px" height="24px" viewBox="0 0 24 24" version="1.1" xmlns="http://www.w3.org/2000/svg">
    <path d="M12,1.5c-0.3,0-0.6,0.1-0.9,0.2L3.5,5.9C3,6.2,2.7,6.7,2.7,7.3v9.4c0,0.6,0.3,1.1,0.8,1.4l7.6,4.2c0.3,0.1,0.6,0.2,0.9,0.2 s0.6-0.1,0.9-0.2l7.6-4.2c0.5-0.3,0.8-0.8,0.8-1.4V7.3c0-0.6-0.3-1.1-0.8-1.4l-7.6-4.2C12.6,1.6,12.3,1.5,12,1.5z" fill="#339933"/>
    <path d="M12,4.5c-0.3,0-0.6,0.1-0.9,0.2L7.5,6.9C7,7.2,6.7,7.7,6.7,8.3v4.4c0,0.6,0.3,1.1,0.8,1.4l3.6,2.2c0.3,0.1,0.6,0.2,0.9,0.2 s0.6-0.1,0.9-0.2l3.6-2.2c0.5-0.3,0.8-0.8,0.8-1.4V8.3c0-0.6-0.3-1.1-0.8-1.4l-3.6-2.2C12.6,4.6,12.3,4.5,12,4.5z" fill="#FFFFFF"/>
</svg> 