<?xml version="1.0" encoding="UTF-8"?>
<svg width="24px" height="24px" viewBox="0 0 24 24" version="1.1" xmlns="http://www.w3.org/2000/svg">
    <path d="M11.914,2c-1.771,0-3.242,0.151-3.875,0.451C7.351,2.751,6,3.452,6,5.357V7.5h6v1H4.023C2.118,8.5,1,9.626,1,11.531c0,1.905,1.118,3.031,3.023,3.031H6V13c0-1.905,1.651-3.5,3.557-3.5h6.885c1.557,0,2.557-1.281,2.557-2.838V5.357c0-1.514-1.277-2.649-2.885-2.905C15.384,2.196,13.685,2,11.914,2z M9,4.5c0.552,0,1,0.448,1,1s-0.448,1-1,1S8,6.052,8,5.5S8.448,4.5,9,4.5z" fill="#3776AB"/>
    <path d="M12.086,22c1.771,0,3.242-0.151,3.875-0.451C16.649,21.249,18,20.548,18,18.643V16.5h-6v-1h7.977c1.905,0,3.023-1.126,3.023-3.031c0-1.905-1.118-3.031-3.023-3.031H18v1.562c0,1.905-1.651,3.5-3.557,3.5H7.557C6,14.5,5,15.781,5,17.338v1.305c0,1.514,1.277,2.649,2.885,2.905C8.616,21.804,10.315,22,12.086,22z M15,19.5c-0.552,0-1-0.448-1-1s0.448-1,1-1s1,0.448,1,1S15.552,19.5,15,19.5z" fill="#FFD43B"/>
</svg> 