<?xml version="1.0" encoding="UTF-8"?>
<svg width="24px" height="24px" viewBox="0 0 24 24" version="1.1" xmlns="http://www.w3.org/2000/svg">
    <rect width="24" height="24" fill="#3178C6"/>
    <path d="M5,12.986v2.008c0.305,0.155,0.666,0.272,1.086,0.35c0.419,0.078,0.859,0.117,1.32,0.117c0.453,0,0.883-0.043,1.291-0.129c0.408-0.086,0.766-0.23,1.074-0.433c0.308-0.203,0.552-0.474,0.732-0.813c0.18-0.339,0.27-0.771,0.27-1.297c0-0.375-0.055-0.695-0.164-0.959c-0.109-0.264-0.258-0.496-0.445-0.695c-0.187-0.199-0.406-0.376-0.656-0.531c-0.25-0.155-0.514-0.302-0.791-0.441c-0.219-0.109-0.421-0.213-0.604-0.311c-0.183-0.098-0.342-0.197-0.475-0.299c-0.133-0.102-0.235-0.213-0.305-0.334c-0.07-0.121-0.105-0.264-0.105-0.428c0-0.148,0.037-0.279,0.111-0.393c0.074-0.114,0.176-0.21,0.305-0.287c0.129-0.078,0.281-0.137,0.457-0.176c0.176-0.039,0.365-0.059,0.568-0.059c0.227,0,0.463,0.021,0.709,0.064c0.246,0.043,0.49,0.105,0.732,0.188c0.242,0.082,0.471,0.18,0.686,0.293v-1.887c-0.289-0.113-0.615-0.197-0.979-0.252c-0.364-0.055-0.79-0.082-1.279-0.082c-0.449,0-0.876,0.049-1.279,0.146c-0.403,0.098-0.756,0.252-1.057,0.463c-0.301,0.211-0.54,0.483-0.715,0.818c-0.176,0.335-0.264,0.744-0.264,1.227c0,0.609,0.141,1.117,0.422,1.524c0.281,0.407,0.717,0.764,1.307,1.071c0.234,0.109,0.457,0.215,0.668,0.317c0.211,0.102,0.396,0.209,0.557,0.322c0.16,0.113,0.287,0.238,0.381,0.375c0.094,0.137,0.141,0.297,0.141,0.48c0,0.148-0.037,0.281-0.111,0.398c-0.074,0.117-0.178,0.215-0.311,0.293c-0.133,0.078-0.291,0.137-0.475,0.176c-0.183,0.039-0.384,0.059-0.604,0.059c-0.578,0-1.119-0.098-1.623-0.293c-0.504-0.195-0.967-0.489-1.391-0.883 M14.95,11.17h2.006v-1.82h-6.016v1.82h2v7.794h2.01V11.17z" fill="#FFFFFF"/>
</svg> 